[Header]
# KeyWord<space>Value<CR>FileType htr
DataType HTRS
FileVersion 1.0
NumSegments 32
NumFrames 4
DataFrameRate 24
EulerRotationOrder XYZ
CalibrationUnits m
RotationUnits Degrees
GlobalAxisofGravity Z
BoneLengthAxis Z
ScaleFactor 1.0
[SegmentNames&Hierarchy]
# ObjectName<tab>ParentObjectName<CR>
pelvis	GLOBAL
spine01	pelvis
spine02	spine01
spine03	spine02
neck	spine03
head	neck
Collar_left	spine03
shoulder_up_left	Collar_left
bicep_up_left	shoulder_up_left
forearm_up_left	bicep_up_left
hand_up_left	forearm_up_left
shoulder_down_left	Collar_left
bicep_down_left	shoulder_down_left
forearm_down_left	bicep_down_left
hand_down_left	forearm_down_left
Collar_right	spine03
shoulder_up_right	Collar_right
bicep_up_right	shoulder_up_right
forearm_up_right	bicep_up_right
hand_up_right	forearm_up_right
shoulder_down_right	Collar_right
bicep_down_right	shoulder_down_right
forearm_down_right	bicep_down_right
hand_down_right	forearm_down_right
hip_left	pelvis
thigh_left	hip_left
shin_left	thigh_left
foot_left	shin_left
hip_right	pelvis
thigh_right	hip_right
shin_right	thigh_right
foot_right	shin_right
[BasePosition]
# ObjectName<tab>Tx<tab>Ty<tab>Tz<tab>Rx<tab>Ry<tab>Rz<tab>BoneLength<CR>
pelvis	0.000000	-0.438872	6.292980	90.000003	-0.000000	0.000000	1.677268
spine01	0.000000	1.677268	0.000000	0.000000	-0.000000	0.000000	2.370449
spine02	0.000000	2.370449	0.000000	0.000000	-0.000000	0.000000	2.680865
spine03	0.000000	2.680865	0.000000	0.000000	-0.000000	0.000000	3.160599
neck	0.000000	3.160599	0.000000	0.000000	-0.000000	0.000000	1.269882
head	0.000000	1.269882	0.000000	0.000000	0.000014	0.000000	4.176504
Collar_left	0.000000	3.160599	0.000000	21.069689	1.138138	109.250822	2.543778
shoulder_up_left	0.000001	2.543777	0.000000	-20.742461	-3.950507	-7.147224	2.341869
bicep_up_left	-0.000001	2.341868	0.000000	4.293160	0.027559	-5.998107	4.071239
forearm_up_left	0.000000	4.071239	-0.000000	-8.968416	-0.165229	-2.037328	3.736216
hand_up_left	0.000000	3.736216	0.000000	-0.780378	-0.284650	4.522557	2.141806
shoulder_down_left	0.000001	2.543777	0.000000	-11.374732	11.433438	33.097546	3.448410
bicep_down_left	-0.000001	3.448409	-0.000000	-0.711867	-1.315530	-6.783924	3.064684
forearm_down_left	0.000001	3.064684	0.000000	-17.686662	0.165761	1.581994	3.587720
hand_down_left	0.000000	3.587720	0.000000	11.694505	-0.524996	2.534701	2.862190
Collar_right	0.000000	3.160599	0.000000	21.069689	-1.138138	-109.250822	2.543778
shoulder_up_right	-0.000001	2.543777	0.000000	-20.742461	3.950507	7.147224	2.341869
bicep_up_right	0.000001	2.341868	0.000000	4.293160	-0.027559	5.998107	4.071239
forearm_up_right	0.000000	4.071239	-0.000000	-8.968416	0.165229	2.037328	3.736216
hand_up_right	0.000000	3.736216	0.000000	-0.780378	0.284650	-4.522557	2.141806
shoulder_down_right	-0.000001	2.543777	0.000000	-11.374732	-11.433438	-33.097546	3.448410
bicep_down_right	0.000001	3.448409	-0.000000	-0.711867	1.315530	6.783924	3.064684
forearm_down_right	-0.000001	3.064684	0.000000	-17.686662	-0.165761	-1.581994	3.587720
hand_down_right	0.000000	3.587720	0.000000	11.694505	0.524996	-2.534701	2.862190
hip_left	0.000000	-0.000003	0.000000	-96.241914	89.999996	0.000000	2.616231
thigh_left	0.000000	2.616231	0.000000	-73.061577	0.000001	0.000006	2.153898
shin_left	0.000000	2.153898	0.000000	-11.660560	0.342853	1.646302	2.782515
foot_left	0.000000	2.782514	0.000000	0.241543	0.154340	-77.422202	3.370008
hip_right	0.000000	-0.000003	0.000000	-96.241914	-89.999996	0.000000	2.616231
thigh_right	-0.000000	2.616231	0.000000	-73.061577	-0.000001	-0.000006	2.153898
shin_right	0.000000	2.153898	0.000000	-11.660560	-0.342853	-1.646302	2.782515
foot_right	-0.000000	2.782514	0.000000	0.241543	-0.154340	77.422202	3.370008
[pelvis]
# Tx<tab>Ty<tab>Tz<tab>Rx<tab>Ry<tab>Rz<tab>BoneScaleFactor<CR>
31	0.000000	0.000000	0.000000	0.000000	-0.000000	0.000000	1.000000
32	0.000000	0.000000	0.000000	0.000000	-0.000000	0.000000	1.000000
33	0.000000	0.000000	0.000000	0.000000	-0.000000	0.000000	1.000000
34	0.000000	0.000000	0.000000	0.000000	-0.000000	0.000000	1.000000
[spine01]
# Tx<tab>Ty<tab>Tz<tab>Rx<tab>Ry<tab>Rz<tab>BoneScaleFactor<CR>
31	0.000000	0.000000	0.000000	-17.216255	0.000000	0.000000	1.000000
32	0.000000	0.000000	0.000000	-17.052486	0.000000	0.000000	1.000000
33	0.000000	0.000000	0.000000	-16.788921	0.000000	0.000000	1.000000
34	0.000000	0.000000	0.000000	-16.433235	0.000000	0.000000	1.000000
[spine02]
# Tx<tab>Ty<tab>Tz<tab>Rx<tab>Ry<tab>Rz<tab>BoneScaleFactor<CR>
31	0.000000	0.000000	0.000000	-13.784256	0.000000	0.000000	1.000000
32	0.000000	0.000000	0.000000	-13.653135	0.000000	0.000000	1.000000
33	0.000000	0.000000	0.000000	-13.442109	0.000000	0.000000	1.000000
34	0.000000	0.000000	0.000000	-13.157326	0.000000	0.000000	1.000000
[spine03]
# Tx<tab>Ty<tab>Tz<tab>Rx<tab>Ry<tab>Rz<tab>BoneScaleFactor<CR>
31	0.000000	0.000000	0.000000	-16.319007	0.000000	0.000000	1.000000
32	0.000000	0.000000	0.000000	-16.163774	0.000000	0.000000	1.000000
33	0.000000	0.000000	0.000000	-15.913945	0.000000	0.000000	1.000000
34	0.000000	0.000000	0.000000	-15.576795	0.000000	0.000000	1.000000
[neck]
# Tx<tab>Ty<tab>Tz<tab>Rx<tab>Ry<tab>Rz<tab>BoneScaleFactor<CR>
31	0.000000	0.000000	0.000000	0.000000	-0.000000	0.000000	1.000000
32	0.000000	0.000000	0.000000	0.000000	-0.000000	0.000000	1.000000
33	0.000000	0.000000	0.000000	0.000000	-0.000000	0.000000	1.000000
34	0.000000	0.000000	0.000000	0.000000	-0.000000	0.000000	1.000000
[head]
# Tx<tab>Ty<tab>Tz<tab>Rx<tab>Ry<tab>Rz<tab>BoneScaleFactor<CR>
31	0.000000	0.000000	0.000000	0.000000	-0.000000	0.000000	1.000000
32	0.000000	0.000000	0.000000	0.000000	-0.000000	0.000000	1.000000
33	0.000000	0.000000	0.000000	0.000000	-0.000000	0.000000	1.000000
34	0.000000	0.000000	0.000000	0.000000	-0.000000	0.000000	1.000000
[Collar_left]
# Tx<tab>Ty<tab>Tz<tab>Rx<tab>Ry<tab>Rz<tab>BoneScaleFactor<CR>
31	0.000000	0.000000	0.000000	0.000000	-0.000000	0.000000	1.000000
32	0.000000	0.000000	0.000000	0.000000	-0.000000	0.000000	1.000000
33	0.000000	0.000000	0.000000	0.000000	-0.000000	0.000000	1.000000
34	0.000000	0.000000	0.000000	0.000000	-0.000000	0.000000	1.000000
[shoulder_up_left]
# Tx<tab>Ty<tab>Tz<tab>Rx<tab>Ry<tab>Rz<tab>BoneScaleFactor<CR>
31	0.000000	0.000000	0.000000	-2.242559	-8.592903	-42.813579	1.000000
32	0.000000	0.000000	0.000000	-2.221226	-8.511163	-42.406312	1.000000
33	0.000000	0.000000	0.000000	-2.186894	-8.379612	-41.750877	1.000000
34	0.000000	0.000000	0.000000	-2.140563	-8.202084	-40.866347	1.000000
[bicep_up_left]
# Tx<tab>Ty<tab>Tz<tab>Rx<tab>Ry<tab>Rz<tab>BoneScaleFactor<CR>
31	0.000000	0.000000	0.000000	0.000000	-0.000000	0.000000	1.000000
32	0.000000	0.000000	0.000000	0.000000	-0.000000	0.000000	1.000000
33	0.000000	0.000000	0.000000	0.000000	-0.000000	0.000000	1.000000
34	0.000000	0.000000	0.000000	0.000000	-0.000000	0.000000	1.000000
[forearm_up_left]
# Tx<tab>Ty<tab>Tz<tab>Rx<tab>Ry<tab>Rz<tab>BoneScaleFactor<CR>
31	0.000000	0.000000	0.000000	-14.601816	-11.701338	-16.406550	1.000000
32	0.000000	0.000000	0.000000	-14.462915	-11.590028	-16.250480	1.000000
33	0.000000	0.000000	0.000000	-14.239375	-11.410891	-15.999308	1.000000
34	0.000000	0.000000	0.000000	-13.937703	-11.169142	-15.660352	1.000000
[hand_up_left]
# Tx<tab>Ty<tab>Tz<tab>Rx<tab>Ry<tab>Rz<tab>BoneScaleFactor<CR>
31	0.000000	0.000000	0.000000	0.909450	-38.582933	2.234559	1.000000
32	0.000000	0.000000	0.000000	0.900799	-38.215916	2.213303	1.000000
33	0.000000	0.000000	0.000000	0.886876	-37.625241	2.179094	1.000000
34	0.000000	0.000000	0.000000	0.868087	-36.828120	2.132928	1.000000
[shoulder_down_left]
# Tx<tab>Ty<tab>Tz<tab>Rx<tab>Ry<tab>Rz<tab>BoneScaleFactor<CR>
31	0.000000	0.000000	0.000000	0.000000	-0.000000	0.000000	1.000000
32	0.000000	0.000000	0.000000	0.000000	-0.000000	0.000000	1.000000
33	0.000000	0.000000	0.000000	0.000000	-0.000000	0.000000	1.000000
34	0.000000	0.000000	0.000000	0.000000	-0.000000	0.000000	1.000000
[bicep_down_left]
# Tx<tab>Ty<tab>Tz<tab>Rx<tab>Ry<tab>Rz<tab>BoneScaleFactor<CR>
31	0.000000	0.000000	0.000000	-17.392704	9.549458	-26.952893	1.000000
32	0.000000	0.000000	0.000000	-17.227257	9.458619	-26.696503	1.000000
33	0.000000	0.000000	0.000000	-16.960987	9.312425	-26.283878	1.000000
34	0.000000	0.000000	0.000000	-16.601658	9.115134	-25.727033	1.000000
[forearm_down_left]
# Tx<tab>Ty<tab>Tz<tab>Rx<tab>Ry<tab>Rz<tab>BoneScaleFactor<CR>
31	0.000000	0.000000	0.000000	-19.069396	18.046948	-24.028375	1.000000
32	0.000000	0.000000	0.000000	-18.888000	17.875278	-23.799806	1.000000
33	0.000000	0.000000	0.000000	-18.596064	17.598993	-23.431951	1.000000
34	0.000000	0.000000	0.000000	-18.202092	17.226143	-22.935524	1.000000
[hand_down_left]
# Tx<tab>Ty<tab>Tz<tab>Rx<tab>Ry<tab>Rz<tab>BoneScaleFactor<CR>
31	0.000000	0.000000	0.000000	0.000000	-0.000000	0.000000	1.000000
32	0.000000	0.000000	0.000000	0.000000	-0.000000	0.000000	1.000000
33	0.000000	0.000000	0.000000	0.000000	-0.000000	0.000000	1.000000
34	0.000000	0.000000	0.000000	0.000000	-0.000000	0.000000	1.000000
[Collar_right]
# Tx<tab>Ty<tab>Tz<tab>Rx<tab>Ry<tab>Rz<tab>BoneScaleFactor<CR>
31	0.000000	0.000000	0.000000	0.000000	-0.000000	0.000000	1.000000
32	0.000000	0.000000	0.000000	0.000000	-0.000000	0.000000	1.000000
33	0.000000	0.000000	0.000000	0.000000	-0.000000	0.000000	1.000000
34	0.000000	0.000000	0.000000	0.000000	-0.000000	0.000000	1.000000
[shoulder_up_right]
# Tx<tab>Ty<tab>Tz<tab>Rx<tab>Ry<tab>Rz<tab>BoneScaleFactor<CR>
31	0.000000	0.000000	0.000000	2.514770	6.982450	40.528819	1.000000
32	0.000000	0.000000	0.000000	2.490849	6.916030	40.143289	1.000000
33	0.000000	0.000000	0.000000	2.452350	6.809134	39.522825	1.000000
34	0.000000	0.000000	0.000000	2.400395	6.664877	38.685502	1.000000
[bicep_up_right]
# Tx<tab>Ty<tab>Tz<tab>Rx<tab>Ry<tab>Rz<tab>BoneScaleFactor<CR>
31	0.000000	0.000000	0.000000	0.000000	-0.000000	0.000000	1.000000
32	0.000000	0.000000	0.000000	0.000000	-0.000000	0.000000	1.000000
33	0.000000	0.000000	0.000000	0.000000	-0.000000	0.000000	1.000000
34	0.000000	0.000000	0.000000	0.000000	-0.000000	0.000000	1.000000
[forearm_up_right]
# Tx<tab>Ty<tab>Tz<tab>Rx<tab>Ry<tab>Rz<tab>BoneScaleFactor<CR>
31	0.000000	0.000000	0.000000	-19.765133	19.224402	22.596673	1.000000
32	0.000000	0.000000	0.000000	-19.577119	19.041531	22.381722	1.000000
33	0.000000	0.000000	0.000000	-19.274531	18.747223	22.035787	1.000000
34	0.000000	0.000000	0.000000	-18.866183	18.350048	21.568940	1.000000
[hand_up_right]
# Tx<tab>Ty<tab>Tz<tab>Rx<tab>Ry<tab>Rz<tab>BoneScaleFactor<CR>
31	0.000000	0.000000	0.000000	-9.095895	39.271013	-7.886159	1.000000
32	0.000000	0.000000	0.000000	-9.009370	38.897446	-7.811143	1.000000
33	0.000000	0.000000	0.000000	-8.870118	38.296242	-7.690412	1.000000
34	0.000000	0.000000	0.000000	-8.682200	37.484901	-7.527485	1.000000
[shoulder_down_right]
# Tx<tab>Ty<tab>Tz<tab>Rx<tab>Ry<tab>Rz<tab>BoneScaleFactor<CR>
31	0.000000	0.000000	0.000000	0.000000	-0.000000	0.000000	1.000000
32	0.000000	0.000000	0.000000	0.000000	-0.000000	0.000000	1.000000
33	0.000000	0.000000	0.000000	0.000000	-0.000000	0.000000	1.000000
34	0.000000	0.000000	0.000000	0.000000	-0.000000	0.000000	1.000000
[bicep_down_right]
# Tx<tab>Ty<tab>Tz<tab>Rx<tab>Ry<tab>Rz<tab>BoneScaleFactor<CR>
31	0.000000	0.000000	0.000000	-21.873013	-10.476439	33.445145	1.000000
32	0.000000	0.000000	0.000000	-21.664949	-10.376781	33.126995	1.000000
33	0.000000	0.000000	0.000000	-21.330090	-10.216396	32.614980	1.000000
34	0.000000	0.000000	0.000000	-20.878198	-9.999953	31.924004	1.000000
[forearm_down_right]
# Tx<tab>Ty<tab>Tz<tab>Rx<tab>Ry<tab>Rz<tab>BoneScaleFactor<CR>
31	0.000000	0.000000	0.000000	-11.768201	-12.973535	15.223331	1.000000
32	0.000000	0.000000	0.000000	-11.656257	-12.850124	15.078517	1.000000
33	0.000000	0.000000	0.000000	-11.476098	-12.651510	14.845462	1.000000
34	0.000000	0.000000	0.000000	-11.232966	-12.383479	14.530947	1.000000
[hand_down_right]
# Tx<tab>Ty<tab>Tz<tab>Rx<tab>Ry<tab>Rz<tab>BoneScaleFactor<CR>
31	0.000000	0.000000	0.000000	0.000000	-0.000000	0.000000	1.000000
32	0.000000	0.000000	0.000000	0.000000	-0.000000	0.000000	1.000000
33	0.000000	0.000000	0.000000	0.000000	-0.000000	0.000000	1.000000
34	0.000000	0.000000	0.000000	0.000000	-0.000000	0.000000	1.000000
[hip_left]
# Tx<tab>Ty<tab>Tz<tab>Rx<tab>Ry<tab>Rz<tab>BoneScaleFactor<CR>
31	0.000000	0.000000	0.000000	0.000000	-0.000000	0.000000	1.000000
32	0.000000	0.000000	0.000000	0.000000	-0.000000	0.000000	1.000000
33	0.000000	0.000000	0.000000	0.000000	-0.000000	0.000000	1.000000
34	0.000000	0.000000	0.000000	0.000000	-0.000000	0.000000	1.000000
[thigh_left]
# Tx<tab>Ty<tab>Tz<tab>Rx<tab>Ry<tab>Rz<tab>BoneScaleFactor<CR>
31	0.000000	0.000000	0.000000	0.000000	-0.000000	0.000000	1.000000
32	0.000000	0.000000	0.000000	0.000000	-0.000000	0.000000	1.000000
33	0.000000	0.000000	0.000000	0.000000	-0.000000	0.000000	1.000000
34	0.000000	0.000000	0.000000	0.000000	-0.000000	0.000000	1.000000
[shin_left]
# Tx<tab>Ty<tab>Tz<tab>Rx<tab>Ry<tab>Rz<tab>BoneScaleFactor<CR>
31	0.000000	0.000000	0.000000	0.000000	-0.000000	0.000000	1.000000
32	0.000000	0.000000	0.000000	0.000000	-0.000000	0.000000	1.000000
33	0.000000	0.000000	0.000000	0.000000	-0.000000	0.000000	1.000000
34	0.000000	0.000000	0.000000	0.000000	-0.000000	0.000000	1.000000
[foot_left]
# Tx<tab>Ty<tab>Tz<tab>Rx<tab>Ry<tab>Rz<tab>BoneScaleFactor<CR>
31	0.000000	0.000000	0.000000	0.000000	-0.000000	0.000000	1.000000
32	0.000000	0.000000	0.000000	0.000000	-0.000000	0.000000	1.000000
33	0.000000	0.000000	0.000000	0.000000	-0.000000	0.000000	1.000000
34	0.000000	0.000000	0.000000	0.000000	-0.000000	0.000000	1.000000
[hip_right]
# Tx<tab>Ty<tab>Tz<tab>Rx<tab>Ry<tab>Rz<tab>BoneScaleFactor<CR>
31	0.000000	0.000000	0.000000	0.000000	-0.000000	0.000000	1.000000
32	0.000000	0.000000	0.000000	0.000000	-0.000000	0.000000	1.000000
33	0.000000	0.000000	0.000000	0.000000	-0.000000	0.000000	1.000000
34	0.000000	0.000000	0.000000	0.000000	-0.000000	0.000000	1.000000
[thigh_right]
# Tx<tab>Ty<tab>Tz<tab>Rx<tab>Ry<tab>Rz<tab>BoneScaleFactor<CR>
31	0.000000	0.000000	0.000000	0.000000	-0.000000	0.000000	1.000000
32	0.000000	0.000000	0.000000	0.000000	-0.000000	0.000000	1.000000
33	0.000000	0.000000	0.000000	0.000000	-0.000000	0.000000	1.000000
34	0.000000	0.000000	0.000000	0.000000	-0.000000	0.000000	1.000000
[shin_right]
# Tx<tab>Ty<tab>Tz<tab>Rx<tab>Ry<tab>Rz<tab>BoneScaleFactor<CR>
31	0.000000	0.000000	0.000000	0.000000	-0.000000	0.000000	1.000000
32	0.000000	0.000000	0.000000	0.000000	-0.000000	0.000000	1.000000
33	0.000000	0.000000	0.000000	0.000000	-0.000000	0.000000	1.000000
34	0.000000	0.000000	0.000000	0.000000	-0.000000	0.000000	1.000000
[foot_right]
# Tx<tab>Ty<tab>Tz<tab>Rx<tab>Ry<tab>Rz<tab>BoneScaleFactor<CR>
31	0.000000	0.000000	0.000000	0.000000	-0.000000	0.000000	1.000000
32	0.000000	0.000000	0.000000	0.000000	-0.000000	0.000000	1.000000
33	0.000000	0.000000	0.000000	0.000000	-0.000000	0.000000	1.000000
34	0.000000	0.000000	0.000000	0.000000	-0.000000	0.000000	1.000000
[EndOfFile]
